HIERARCHY
ROOT Pelvis
{
	OFFSET 0.000000 0.000000 0.000000
	CHANNELS 6 Xposition Yposition Zposition Xrotation Yrotation Zrotation
	JOINT LeftUpLeg_virtual
	{
		OFFSET 0.000000 0.000000 0.000000
		CHANNELS 3 Xrotation Yrotation Zrotation
		JOINT LeftUpLeg
		{
			OFFSET 18.735201 -5.666702 -4.541200
			CHANNELS 3 Xrotation Yrotation Zrotation
			JOINT LeftLeg
			{
				OFFSET -0.021200 -31.938179 0.493100
				CHANNELS 3 Xrotation Yrotation Zrotation
				JOINT LeftFoot
				{
					OFFSET 0.021200 -31.938179 -4.336299
					CHANNELS 3 Xrotation Yrotation Zrotation
					JOINT LeftToeBase
					{
						OFFSET 0.943001 -26.722000 15.023500
						CHANNELS 3 Xrotation Yrotation Zrotation
						End Site
						{
							OFFSET 0 0 0
						}
					}
				}
			}
		}
	}
	JOINT RightUpLeg_virtual
	{
		OFFSET 0.000000 0.000000 0.000000
		CHANNELS 3 Xrotation Yrotation Zrotation
		JOINT RightUpLeg
		{
			OFFSET -18.735201 -5.666702 -4.541200
			CHANNELS 3 Xrotation Yrotation Zrotation
			JOINT RightLeg
			{
				OFFSET 0.018946 -31.938133 0.493100
				CHANNELS 3 Xrotation Yrotation Zrotation
				JOINT RightFoot
				{
					OFFSET -0.018946 -31.938126 -4.336299
					CHANNELS 3 Xrotation Yrotation Zrotation
					JOINT RightToeBase
					{
						OFFSET -0.943001 -26.722004 15.023500
						CHANNELS 3 Xrotation Yrotation Zrotation
						End Site
						{
							OFFSET 0 0 0
						}
					}
				}
			}
		}
	}
	JOINT Hips_virtual
	{
		OFFSET 0.000000 0.000000 0.000000
		CHANNELS 3 Xrotation Yrotation Zrotation
		JOINT Hips
		{
			OFFSET -0.000000 -0.000000 -0.000000
			CHANNELS 3 Xrotation Yrotation Zrotation
			JOINT Spine
			{
				OFFSET 0.000000 10.199997 -0.299500
				CHANNELS 3 Xrotation Yrotation Zrotation
				JOINT Spine1
				{
					OFFSET 0.000000 11.900002 -1.516600
					CHANNELS 3 Xrotation Yrotation Zrotation
					JOINT Spine2
					{
						OFFSET 0.000000 13.600006 -2.842500
						CHANNELS 3 Xrotation Yrotation Zrotation
						JOINT Neck_virtual
						{
							OFFSET 0.000000 0.000000 0.000000
							CHANNELS 3 Xrotation Yrotation Zrotation
							JOINT Neck
							{
								OFFSET 0.000000 9.624100 -2.890100
								CHANNELS 3 Xrotation Yrotation Zrotation
								JOINT Head
								{
									OFFSET 0.000000 14.068802 -1.351900
									CHANNELS 3 Xrotation Yrotation Zrotation
									End Site
									{
										OFFSET 0 0 0
									}
								}
							}
						}
						JOINT LeftShoulder_virtual
						{
							OFFSET 0.000000 0.000000 0.000000
							CHANNELS 3 Xrotation Yrotation Zrotation
							JOINT LeftShoulder
							{
								OFFSET 15.263000 10.923401 -0.547700
								CHANNELS 3 Xrotation Yrotation Zrotation
								JOINT LeftArm
								{
									OFFSET 25.438599 -2.830597 -13.032500
									CHANNELS 3 Xrotation Yrotation Zrotation
									JOINT LeftForeArm
									{
										OFFSET 29.960503 0.000000 0.000000
										CHANNELS 3 Xrotation Yrotation Zrotation
										JOINT LeftHand
										{
											OFFSET 27.849251 0.000000 0.000000
											CHANNELS 3 Xrotation Yrotation Zrotation
											End Site
											{
												OFFSET 0 0 0
											}
										}
									}
								}
							}
						}
						JOINT RightShoulder_virtual
						{
							OFFSET 0.000000 0.000000 0.000000
							CHANNELS 3 Xrotation Yrotation Zrotation
							JOINT RightShoulder
							{
								OFFSET -15.263000 10.923401 -0.547700
								CHANNELS 3 Xrotation Yrotation Zrotation
								JOINT RightArm
								{
									OFFSET -25.438599 -2.830597 -13.032500
									CHANNELS 3 Xrotation Yrotation Zrotation
									JOINT RightForeArm
									{
										OFFSET -29.960503 0.000000 0.000000
										CHANNELS 3 Xrotation Yrotation Zrotation
										JOINT RightHand
										{
											OFFSET -27.849251 0.000000 0.000000
											CHANNELS 3 Xrotation Yrotation Zrotation
											End Site
											{
												OFFSET 0 0 0
											}
										}
									}
								}
							}
						}
					}
				}
			}
		}
	}
}
MOTION
Frames: 8
Frame Time: 0.03333333
7.382190 20.109257 180.443787 0.000000 0.000000 0.000000 -98.552321 -0.080080 -0.064916 -52.582922 -46.912956 26.636232 103.281906 -12.544484 5.573267 17.652296 -3.411620 -25.160158 0.000000 0.000000 0.000000 -98.552321 -0.080080 -0.064916 -55.188215 15.587552 -19.497832 96.866528 8.115241 -4.020021 9.715573 2.024868 19.530253 0.000000 0.000000 0.000000 -98.552321 -0.080080 -0.064916 0.000000 0.000000 0.000000 3.641100 -0.745668 0.543583 0.996818 -0.409160 0.102272 0.000000 0.000000 0.000000 1.002254 -0.404640 0.123115 4.746705 -0.340966 0.001556 0.000000 0.000000 0.000000 1.002254 -0.404640 0.123115 -0.224978 -17.471177 -6.131979 63.391464 -14.457682 -43.758017 0.000002 -33.190369 -0.000002 0.000000 0.000000 0.000000 1.002254 -0.404640 0.123115 -2.454926 7.297286 14.160517 82.050619 23.802221 19.508786 0.000002 33.367393 -0.000002 0.000000 0.000000 0.000000 
7.513393 20.035988 180.322815 0.000000 0.000000 0.000000 -98.539009 0.096035 -0.002328 -53.234477 -46.850060 26.181240 103.293422 -12.155580 5.613157 17.712345 -3.438555 -25.329004 0.000000 0.000000 0.000000 -98.539009 0.096035 -0.002328 -54.118939 14.906659 -20.300417 95.955859 7.829010 -4.045995 8.189148 1.932863 20.384717 0.000000 0.000000 0.000000 -98.539009 0.096035 -0.002328 -0.000001 0.000000 0.000000 3.846564 -0.740357 0.526707 1.031032 -0.407030 0.091107 0.000000 0.000000 0.000000 1.036528 -0.402723 0.114033 4.930746 -0.348234 0.011052 0.000000 0.000000 0.000000 1.036528 -0.402723 0.114033 -0.240326 -17.364779 -6.480453 63.299126 -14.213864 -43.254096 -0.000003 -33.210832 -0.000002 0.000000 0.000000 0.000000 1.036528 -0.402723 0.114033 -2.482191 7.018732 14.624711 81.478529 23.186645 19.645588 0.000003 33.245877 -0.000002 0.000000 0.000000 0.000000 
7.624781 19.963524 180.205963 0.000000 0.000000 0.000000 -98.528368 0.259061 0.083209 -53.894881 -46.741648 25.756795 103.303626 -11.812607 5.634269 17.805304 -3.458091 -25.447994 0.000000 0.000000 0.000000 -98.528368 0.259061 0.083209 -52.976904 14.136934 -21.079408 94.936563 7.506141 -4.079436 6.644244 1.910312 21.245437 0.000000 0.000000 0.000000 -98.528368 0.259061 0.083209 0.000000 0.000000 0.000000 4.140892 -0.736420 0.484391 1.137666 -0.405697 0.070828 0.000000 0.000000 0.000000 1.143166 -0.402001 0.095219 5.090383 -0.349235 0.019897 0.000000 0.000000 0.000000 1.143166 -0.402001 0.095219 -0.154410 -16.831184 -6.895302 63.080540 -13.982380 -42.252855 -0.000009 -33.293784 0.000001 0.000000 0.000000 0.000000 1.143166 -0.402001 0.095219 -2.516774 6.886645 15.038912 80.629147 22.829689 19.944864 0.000001 32.748336 -0.000001 0.000000 0.000000 0.000000 
7.709889 19.889679 180.100250 0.000000 0.000000 0.000000 -98.530321 0.402848 0.188956 -54.545908 -46.594113 25.375449 103.318994 -11.518137 5.634121 17.926714 -3.469569 -25.512355 0.000000 0.000000 0.000000 -98.530321 0.402848 0.188956 -51.731501 13.281464 -21.868739 93.792499 7.296688 -4.093308 5.052309 1.827634 22.215506 0.000000 0.000000 0.000000 -98.530321 0.402848 0.188956 0.000000 0.000000 0.000000 4.408223 -0.745111 0.420197 1.255846 -0.410343 0.044730 0.000000 0.000000 0.000000 1.261415 -0.407324 0.070598 5.218794 -0.344440 0.027517 0.000000 0.000000 0.000000 1.261415 -0.407324 0.070598 -0.073221 -16.364824 -7.317480 62.845834 -13.725590 -41.337230 0.000007 -33.322164 0.000003 0.000000 0.000000 0.000000 1.261415 -0.407324 0.070598 -2.562795 6.924872 15.366537 79.650770 22.623110 20.419424 0.000002 32.127540 -0.000003 0.000000 0.000000 0.000000 
7.771195 19.813320 180.009003 0.000000 0.000000 0.000000 -98.545853 0.529454 0.309958 -55.196838 -46.409851 25.019239 103.344785 -11.252878 5.616725 18.081100 -3.477233 -25.518060 0.000000 0.000000 0.000000 -98.545853 0.529454 0.309958 -50.357305 12.330663 -22.696240 92.492885 7.168404 -4.074356 3.392877 1.712761 23.320323 0.000000 0.000000 0.000000 -98.545853 0.529454 0.309958 -0.000001 0.000000 0.000000 4.650712 -0.775711 0.343008 1.387987 -0.425766 0.016742 0.000000 0.000000 0.000000 1.393684 -0.423227 0.044398 5.316752 -0.334519 0.030778 0.000000 0.000000 0.000000 1.393684 -0.423227 0.044398 0.009512 -15.933920 -7.745201 62.583186 -13.462223 -40.495338 -0.000006 -33.289304 -0.000000 0.000000 0.000000 0.000000 1.393684 -0.423227 0.044398 -2.620599 7.110670 15.598115 78.640961 22.506896 21.021523 0.000003 31.831899 0.000002 0.000000 0.000000 0.000000 
7.814541 19.733612 179.939240 0.000000 0.000000 0.000000 -98.567232 0.645373 0.441479 -55.869154 -46.196445 24.656314 103.386497 -10.997767 5.590158 18.270088 -3.486933 -25.479286 0.000000 0.000000 0.000000 -98.567232 0.645373 0.441479 -48.830429 11.276732 -23.582319 91.005092 7.115849 -4.012201 1.649118 1.550086 24.602142 0.000000 0.000000 0.000000 -98.567232 0.645373 0.441479 0.000001 0.000000 0.000000 4.882148 -0.833486 0.264052 1.535968 -0.455025 -0.008863 0.000000 0.000000 0.000000 1.541957 -0.452546 0.021193 5.391575 -0.319752 0.024302 0.000000 0.000000 0.000000 1.541957 -0.452546 0.021193 0.112241 -15.458029 -8.181738 62.274591 -13.228056 -39.651731 0.000003 -33.197264 0.000005 0.000000 0.000000 0.000000 1.541957 -0.452546 0.021193 -2.686996 7.390219 15.744571 77.624417 22.468245 21.651939 0.000001 31.607503 -0.000005 0.000000 0.000000 0.000000 
7.849843 19.648872 179.894653 0.000000 0.000000 0.000000 -98.580974 0.758412 0.577266 -56.591345 -45.958321 24.246839 103.447504 -10.735976 5.564504 18.492780 -3.504109 -25.415052 0.000000 0.000000 0.000000 -98.580974 0.758412 0.577266 -47.165485 10.113842 -24.511671 89.333328 7.107511 -3.909082 -0.184062 1.332935 26.058206 0.000000 0.000000 0.000000 -98.580974 0.758412 0.577266 -0.000001 0.000000 0.000000 5.121049 -0.917519 0.196134 1.701094 -0.498171 -0.028545 0.000000 0.000000 0.000000 1.707503 -0.495206 0.004677 5.451844 -0.300559 0.003350 0.000000 0.000000 0.000000 1.707503 -0.495206 0.004677 0.254421 -14.847921 -8.640252 61.904388 -13.056666 -38.704414 -0.000008 -33.055329 -0.000003 0.000000 0.000000 0.000000 1.707503 -0.495206 0.004677 -2.757249 7.700489 15.826405 76.609615 22.456202 22.250202 -0.000002 31.483330 0.000004 0.000000 0.000000 0.000000 
7.886284 19.557167 179.876587 0.000000 0.000000 0.000000 -98.572498 0.874777 0.712345 -57.390330 -45.694526 23.756595 103.529289 -10.460613 5.547732 18.746320 -3.531640 -25.338993 0.000000 0.000000 0.000000 -98.572498 0.874777 0.712345 -45.398789 8.841120 -25.445851 87.489403 7.090053 -3.777863 -2.073245 1.065136 27.657178 0.000000 0.000000 0.000000 -98.572498 0.874777 0.712345 0.000000 0.000000 0.000000 5.384072 -1.020391 0.145710 1.884310 -0.551748 -0.041332 0.000000 0.000000 0.000000 1.891246 -0.547764 -0.004243 5.502595 -0.278173 -0.032394 0.000000 0.000000 0.000000 1.891246 -0.547764 -0.004243 0.449318 -14.042296 -9.130693 61.463301 -12.969219 -37.567868 -0.000008 -32.881091 -0.000014 0.000000 0.000000 0.000000 1.891246 -0.547764 -0.004243 -2.826991 7.988186 15.868334 75.566030 22.432896 22.796212 0.000001 31.452345 -0.000003 0.000000 0.000000 0.000000 
